<?xml version="1.0" encoding="UTF-8" standalone="no"?>
<!-- Created with Inkscape (http://www.inkscape.org/) -->

<svg
   width="20mm"
   height="20mm"
   viewBox="0 0 20 20"
   version="1.1"
   id="svg1"
   sodipodi:docname="drawing.svg"
   inkscape:version="1.3.2 (091e20e, 2023-11-25)"
   xmlns:inkscape="http://www.inkscape.org/namespaces/inkscape"
   xmlns:sodipodi="http://sodipodi.sourceforge.net/DTD/sodipodi-0.dtd"
   xmlns="http://www.w3.org/2000/svg"
   xmlns:svg="http://www.w3.org/2000/svg">
  <sodipodi:namedview
     id="namedview1"
     pagecolor="#ffffff"
     bordercolor="#000000"
     borderopacity="0.25"
     inkscape:showpageshadow="2"
     inkscape:pageopacity="0.0"
     inkscape:pagecheckerboard="0"
     inkscape:deskcolor="#d1d1d1"
     inkscape:document-units="mm"
     inkscape:zoom="3.7188346"
     inkscape:cx="51.763528"
     inkscape:cy="77.981419"
     inkscape:window-width="1792"
     inkscape:window-height="1067"
     inkscape:window-x="0"
     inkscape:window-y="1075"
     inkscape:window-maximized="0"
     inkscape:current-layer="layer1" />
  <defs
     id="defs1" />
  <g
     inkscape:label="Layer 1"
     inkscape:groupmode="layer"
     id="layer1">
    <path
       style="fill:#000000;stroke-width:0.24419"
       id="path1"
       d="m 2.1363458,3.0112822 c -0.043044,0.018567 -0.090787,0.02882 -0.1291313,0.055701 -0.037622,0.026374 -0.062446,0.067257 -0.093914,0.1006561 C 1.8735376,3.2098425 1.8330297,3.2513505 1.793522,3.2937887 1.6524618,3.4453148 1.5239541,3.6018471 1.3988322,3.7665495 1.1271787,4.1957152 0.91863624,4.6607691 0.72385133,5.1283595 0.50167488,5.6404299 0.33098871,6.1726664 0.19969965,6.7143183 c -0.14122595,0.6136857 -0.23339429,1.23638 -0.2662243,1.8648491 -0.02798162,0.6318192 0.0277011,1.2641435 0.08651655,1.8928826 0.05242687,0.494376 0.12720292,0.985957 0.2195253,1.474441 0.0544394,0.294456 0.14084167,0.58152 0.24612865,0.861615 0.0537165,0.147728 0.1326091,0.283864 0.19875517,0.426067 0.0437063,0.122327 0.0915507,0.242147 0.12101014,0.368855 0.0378019,0.134357 0.0652253,0.270982 0.10080855,0.405895 0.0132752,0.107191 0.0696356,0.194996 0.11963759,0.287414 0.024055,0.02568 0.010439,0.06515 0.031281,0.09231 0.00156,0.0021 0.044287,0.03321 0.047177,0.03485 0.5383651,0.305182 1.0777329,0.608613 1.6165993,0.912919 0.1497271,0.05472 0.3056413,0.09368 0.4579032,0.142707 0.2501445,0.06118 0.488585,0.16065 0.7338601,0.237167 0.2694537,0.115615 0.5607475,0.161766 0.8463887,0.219959 0.5487307,0.111469 1.0877888,0.262731 1.6279027,0.408521 0.4188007,0.115764 0.842465,0.215882 1.2469325,0.376359 0.2591452,0.124017 0.5076174,0.26632 0.7704331,0.383668 0.4847995,0.191307 0.9766243,0.366554 1.4745101,0.521054 0.532375,0.171043 1.068766,0.330135 1.606807,0.482736 0.31122,0.0963 0.620601,0.208521 0.942331,0.265058 0.236346,0.05669 0.475972,0.09986 0.711604,0.159112 0.219534,0.07595 0.443156,0.134148 0.668469,0.189897 0.246478,0.07804 0.495832,0.144018 0.751618,0.183079 0.139713,0.02319 0.280482,0.03864 0.421936,0.04558 0.0614,3.89e-4 0.01664,-0.0062 0.03089,0.03896 0.007,0.02226 0.119138,0.0069 0.122085,0.0067 0.236223,-5.35e-4 0.472443,0.0039 0.708674,0.0054 0.174265,0.0029 0.366729,-0.0058 0.526067,0.07575 0.07261,0.0132 0.123792,0.06819 0.191133,0.09123 0.104615,0.0358 0.0046,-0.01157 0.104385,0.04042 0.05821,0.03087 0.118113,0.05923 0.173585,0.09494 0.0029,-0.0099 0.0083,0.0129 0.01057,0.009 0.169122,-0.28922 0.173417,-0.167954 0.06344,-0.286119 -0.09011,-0.13814 -0.152923,-0.283576 -0.190961,-0.443509 -0.05552,-0.194567 -0.07016,-0.391245 -0.05679,-0.592229 0.03278,-0.251752 0.05598,-0.504824 0.05666,-0.758732 -0.01559,-0.300777 -0.0076,-0.601938 0.0023,-0.902748 0.01551,-0.327817 0.06407,-0.652486 0.0983,-0.978592 0.02926,-0.294323 0.06495,-0.587923 0.09271,-0.882392 0.01645,-0.224877 0.04975,-0.447691 0.06959,-0.672248 0.01573,-0.239872 0.04227,-0.478286 0.0785,-0.715926 0.0391,-0.281727 0.119446,-0.556292 0.211979,-0.824778 0.0837,-0.292364 0.209361,-0.567668 0.340445,-0.841191 0.09324,-0.204137 0.20323,-0.398547 0.316235,-0.592192 0.09176,-0.140899 0.199979,-0.268982 0.312322,-0.393847 0.115868,-0.131871 0.22085,-0.270335 0.361997,-0.377119 0.124631,-0.1091357 0.260963,-0.2037498 0.394695,-0.3013717 0.101453,-0.060387 0.19288,-0.1371877 0.297824,-0.1918266 0.09824,-0.044764 0.193408,-0.091726 0.289969,-0.1386608 0.08386,-0.040889 0.162708,-0.091983 0.247827,-0.1305518 0.07559,-0.040402 0.152255,-0.076433 0.233459,-0.1054741 0.04107,-0.00304 0.08094,0.00358 0.121642,0.0069 0.147247,0.013663 0.07487,0.014032 0.05676,-0.2444588 C 19.176488,8.409409 18.930697,8.152398 19.278631,8.495513 c 0,0 0.311921,0.2444349 0.311921,0.2444349 v 0 c 0.468154,0.311787 0.22099,0.1381454 -0.817773,-0.39226 -4.89e-4,-0.2296423 0.06631,-0.2464775 -0.07786,-0.2294859 -0.05552,0.00773 -0.108976,0.023638 -0.157956,0.051407 -0.07819,0.039316 -0.15573,0.079746 -0.234061,0.1186843 -0.08198,0.044984 -0.165728,0.086693 -0.247962,0.1312355 -0.09711,0.051498 -0.201582,0.089619 -0.294358,0.1494288 -0.102767,0.06664 -0.203566,0.1366017 -0.30046,0.2116064 C 17.324171,8.8806455 17.186504,8.9795987 17.06,9.0912837 16.92256,9.2141268 16.806605,9.3554375 16.683662,9.4921411 16.56478,9.6277719 16.449273,9.7685471 16.352351,9.9205219 16.245149,10.12258 16.138174,10.324757 16.044408,10.533548 c -0.124005,0.282571 -0.259521,0.561559 -0.346224,0.8586 -0.094,0.277243 -0.18741,0.559991 -0.233461,0.848992 -0.03749,0.240491 -0.07332,0.482203 -0.09022,0.724826 -0.01563,0.226018 -0.05266,0.449803 -0.06398,0.675874 -0.0166,0.296086 -0.05536,0.589612 -0.07883,0.884998 -0.03018,0.330228 -0.08597,0.65723 -0.108474,0.988138 -0.0045,0.301922 -0.0287,0.604705 -0.01148,0.906127 0.0092,0.246864 -0.01875,0.492756 -0.0557,0.736753 -0.02575,0.211866 -0.03291,0.430552 0.02905,0.637256 0.02792,0.167629 0.05908,0.338122 0.152551,0.483803 0.04769,0.163345 0.02372,0.11962 0.173325,-0.121877 0.0021,-0.0034 -0.0178,0.0029 -0.01165,-0.0034 -0.05712,-0.02397 -0.112627,-0.05172 -0.170544,-0.07389 -0.103388,-0.03726 -0.198022,-0.09493 -0.308643,-0.113116 -0.178856,-0.02142 -0.35721,-0.02743 -0.537445,-0.02111 -0.237331,-0.0032 -0.478047,0.001 -0.711915,-0.04363 -0.0045,-0.0022 -0.09059,-0.0568 -0.101055,-0.05508 -0.0434,0.0071 -0.03288,0.03122 -0.07175,0.02155 -0.128367,-0.0069 -0.255991,-0.02334 -0.382631,-0.04519 -0.25178,-0.05211 -0.497147,-0.12681 -0.745027,-0.194332 -0.225359,-0.0587 -0.445914,-0.133361 -0.672424,-0.187754 C 11.460884,17.39147 11.2252,17.33613 10.987988,17.287446 10.684009,17.212116 10.383859,17.12318 10.083179,17.036082 9.5505845,16.888253 9.0205293,16.730935 8.4951812,16.559454 7.9913835,16.392109 7.488468,16.217682 7.00527,15.997219 6.7429891,15.867197 6.4907456,15.713769 6.2127327,15.618284 5.8118873,15.490459 5.4024072,15.394326 4.996618,15.283647 4.4484324,15.135533 3.8991946,14.99073 3.3448295,14.86698 3.0527247,14.79694 2.7637347,14.719202 2.4826824,14.612559 2.2393661,14.528175 1.9936907,14.450889 1.7475026,14.375305 1.5885492,14.323315 1.427628,14.276883 1.2747789,14.208466 c 0.5145582,0.294919 1.0291161,0.589837 1.5436742,0.884757 -0.00117,-7.54e-4 -0.044523,-0.0294 -0.046704,-0.02998 -0.033593,-0.009 -0.052509,0.02912 -0.067537,-0.02036 C 2.6559061,14.957953 2.6017084,14.880413 2.554151,14.795488 2.523786,14.657622 2.481897,14.523334 2.454862,14.384616 2.433295,14.316396 2.429206,14.247199 2.409617,14.178844 2.376869,14.064573 2.400147,14.180444 2.360377,14.070282 2.351837,14.046622 2.348216,14.021492 2.342134,13.997082 2.2899267,13.843315 2.2055964,13.706961 2.1351874,13.562044 2.0052802,13.293351 1.9088053,13.00733 1.8387137,12.717923 1.738269,12.230731 1.6482599,11.741798 1.5900087,11.247532 1.5221409,10.625022 1.4559974,9.9990204 1.4786861,9.3720097 1.512474,8.7556098 1.5991775,8.1437699 1.7430412,7.5427708 1.8755554,7.0108592 2.037535,6.4863562 2.2603853,5.9841061 2.4531927,5.5278773 2.6564461,5.0751292 2.9323903,4.6610783 3.0358228,4.4897278 3.1460315,4.3276557 3.2589563,4.1626507 c 0.031793,-0.046457 0.060901,-0.094677 0.092005,-0.1415921 0.024925,-0.037595 0.060273,-0.069728 0.076072,-0.1119242 0.014211,-0.037956 0.00743,-0.080661 0.011135,-0.120991 z" />
    <path
       style="fill:#000000;stroke-width:0.24419"
       id="path2"
       d="M 3.3125852,4.5893823 C 3.278626,4.5793163 3.2436847,4.5720658 3.2107071,4.559175 3.1678598,4.5424198 3.126255,4.5224258 3.0857408,4.5006744 3.0466761,4.479705 2.9336561,4.4095834 2.9723442,4.4312336 3.4405029,4.6931828 3.9029274,4.9653177 4.3742354,5.2216274 4.4091851,5.240637 4.3110449,5.1729076 4.2835187,5.144283 4.2459936,5.105261 4.2143608,5.0610313 4.179782,5.0194018 3.9444952,4.6489236 3.8833193,4.2490516 3.866455,3.8195041 3.8752508,3.2985568 3.9700836,2.7867407 4.1446076,2.2965644 4.2811995,1.9682216 4.464672,1.6333114 4.7552756,1.4131314 4.8044854,1.3758469 4.8597775,1.347243 4.9120285,1.3142989 5.2331843,1.1370834 5.4633005,1.2182636 5.7485491,1.4091708 3.0551508,-0.08168976 4.2155718,0.34443819 4.5695364,0.84819749 4.6890162,1.01824 4.7622245,1.2059139 4.8361774,1.3981627 5.0043433,1.8826688 5.0437813,2.3957686 5.0557714,2.9043711 5.0722557,3.3621025 4.9632433,3.7948728 4.768244,4.2056189 4.6100152,4.4635009 4.3495024,4.679567 4.0434488,4.7380069 3.9858729,4.7490022 3.9264868,4.746288 3.8680055,4.7504193 3.8111693,4.7450826 3.753004,4.7477509 3.6974968,4.7345473 3.6077457,4.7131272 3.4389365,4.6284005 3.3603438,4.584307 3.3083271,4.5551211 3.1567416,4.4600708 3.2082523,4.4901271 4.4531151,5.2164997 4.8429799,5.4705829 3.7803272,4.8013631 3.7551431,4.729714 3.7299592,4.6580732 3.7047751,4.5864288 c 0,0 -0.033177,-0.01635 -0.033177,-0.01635 v 0 C 3.66053,4.625423 3.649458,4.6807761 3.6383898,4.7361254 3.4816676,4.7207503 3.0517571,4.5846446 3.1682228,4.6900001 c 0.4204622,0.3803648 0.9525593,0.6172851 1.43393,0.9179747 0.078096,0.048784 0.2560325,0.1200635 0.342469,0.1420928 0.1863107,0.047487 0.2015509,0.033161 0.3860632,0.023095 0.0644,-0.014621 0.1303807,-0.023546 0.1931975,-0.043862 C 5.7834627,5.6453681 6.04815,5.4654091 6.2131413,5.2484994 6.2536798,5.1952065 6.2826778,5.1341397 6.3174464,5.0769593 6.520507,4.6413962 6.6462882,4.1800141 6.6225202,3.6953014 6.6212466,3.1750948 6.5917812,2.6465357 6.4422387,2.1450964 6.4045267,2.0268236 6.3489653,1.8406432 6.2977807,1.724841 5.9381352,0.91116318 5.2416795,0.74447125 4.3491366,0.28781335 3.9670316,0.12065602 3.7666014,0.14012337 3.4078733,0.3597965 3.3514193,0.40092235 3.2918148,0.43808609 3.2385112,0.48317403 2.9403748,0.73535856 2.7442257,1.0914637 2.6019533,1.4474459 2.5713035,1.5309326 2.5368304,1.6131293 2.5100041,1.6979062 2.3745207,2.126064 2.3289499,2.5810971 2.2948133,3.0261433 c -0.00205,0.1713909 -0.010298,0.3401515 0.010998,0.5109403 0.032954,0.2643183 0.1210159,0.5261356 0.2294279,0.7680202 0.027867,0.050588 0.050559,0.104348 0.083601,0.151754 0.032259,0.046281 0.062953,0.098221 0.1112002,0.1277234 0.5299841,0.3240796 1.0728741,0.6270355 1.6161731,0.9285485 0.031819,0.017657 0.069662,0.023003 0.1058667,0.027125 0.048566,0.00552 0.1026,-0.0098 0.1494507,-0.020105 z" />
    <path
       style="fill:#000000;stroke-width:0.24419"
       id="path3"
       d="M 7.9017555,5.812062 C 7.705725,5.6132581 7.5731016,5.3737559 7.4784986,5.1142818 7.3797706,4.8070944 7.4005375,4.4890194 7.4360043,4.1739577 7.4950279,3.7592905 7.6403701,3.3640528 7.817544,2.9862211 7.9946912,2.6254849 8.1563848,2.4015315 8.4918568,2.1792495 8.7304179,2.0783421 9.000834,2.0205752 9.2599474,2.0736698 c 0.056156,0.011505 0.1092751,0.034539 0.1639135,0.05181 0.5657135,0.2571338 1.4842251,0.763106 -1.0407312,-0.6140714 -0.052379,-0.02857 0.098774,0.067141 0.1447904,0.105019 C 8.6612054,1.726142 8.6665729,1.7490897 8.7745353,1.88712 9.0055443,2.2514244 9.0195813,2.6765396 9.0038316,3.0936032 8.9772627,3.5485219 8.8682097,3.9867166 8.7335544,4.4198306 8.6692335,4.5930112 8.614782,4.7711521 8.5122361,4.9271008 8.4272897,5.0562835 8.3143098,5.1611292 8.2027582,5.2666237 7.9620624,5.4765094 7.6716538,5.5346953 7.3634443,5.5658153 7.2720583,5.5594666 7.1248863,5.5564854 7.0364113,5.521972 6.9891093,5.5035238 6.8624239,5.4176434 6.906976,5.4419315 7.3795639,5.6995765 7.8398758,5.9800181 8.320702,6.222138 8.3787833,6.2513791 8.231997,6.1270767 8.1829927,6.08447 8.0548286,5.9730308 7.9207953,5.8684408 7.7896966,5.7604262 7.6634147,5.6340701 7.5371318,5.5077149 7.410849,5.3813588 c 0,0 -0.1867927,-0.091045 -0.1867927,-0.091045 v 0 c -0.103733,0.019009 -0.2074664,0.038029 -0.3111994,0.057038 -0.093316,0.019589 -0.2068178,-0.00203 -0.2799471,0.058768 -0.037656,0.031339 -6.368e-4,0.1134331 0.039921,0.1409564 0.5314929,0.3606689 1.0898462,0.681047 1.6459115,1.0030454 0.046528,0.026941 0.103167,0.031937 0.1563142,0.040559 0.1234287,0.02004 0.2288398,0.00969 0.3534111,0.00524 C 9.1780728,6.5438457 9.4650206,6.4456036 9.7303173,6.2024651 10.021746,5.928375 10.184756,5.6563883 10.29104,5.2683498 10.431998,4.8221179 10.53981,4.37028 10.579293,3.9026822 10.612944,3.4610727 10.606973,3.0052834 10.409581,2.5982974 10.318232,2.4388954 10.214203,2.2552684 10.049376,2.1560401 9.3851499,1.7561657 8.7475683,1.2733922 7.9990626,1.0471358 7.9372597,1.0379335 7.8759716,1.0241764 7.8136549,1.0195317 7.5197277,0.99762153 7.2310887,1.0749491 6.9784058,1.2212231 6.8487877,1.3159027 6.8168315,1.3307753 6.7049229,1.4462036 6.5174648,1.639558 6.39567,1.8791276 6.2719714,2.1149799 6.0797497,2.5037817 5.9382211,2.9199353 5.8543585,3.3453671 c -0.055661,0.3333925 -0.082741,0.6712634 -0.00588,1.0042876 0.073862,0.2741572 0.1949308,0.5295857 0.3708504,0.7546761 z" />
    <path
       style="fill:#000000;stroke-width:0.24419"
       id="path4"
       d="m 11.628983,6.7877579 c -0.04791,-0.051287 -0.08285,-0.082157 -0.114294,-0.1498318 -0.01769,-0.038074 -0.02518,-0.080059 -0.03811,-0.1199806 -0.04958,-0.1530054 -0.09438,-0.302747 -0.12953,-0.4597796 -0.05992,-0.2879313 -0.04547,-0.5831058 -0.02596,-0.874424 0.01884,-0.3463381 0.08697,-0.6812889 0.219295,-1.0018756 0.08918,-0.1711842 0.189084,-0.3560781 0.343409,-0.480018 0.07064,-0.056728 0.112884,-0.065462 0.196032,-0.097265 0.248823,-0.081833 0.475357,0.025629 0.696312,0.1320161 0.586096,0.3906133 -0.02902,-0.023371 -1.284627,-0.7210705 -0.04672,-0.025957 0.08805,0.060567 0.130425,0.093068 0.133059,0.1020681 0.229381,0.2108266 0.324658,0.3474162 0.16259,0.2756642 0.201853,0.5884802 0.201487,0.9019962 -0.01299,0.278099 -0.07831,0.5469785 -0.158847,0.8121306 -0.08202,0.2550759 -0.202641,0.4919061 -0.369386,0.7016961 -0.191306,0.1970142 -0.365685,0.2780143 -0.64076,0.2825524 -0.04115,-0.00608 -0.08478,-0.00295 -0.123464,-0.01819 -0.0387,-0.015265 -0.139009,-0.090907 -0.102535,-0.070932 0.482031,0.2639347 0.954106,0.5458302 1.439756,0.8031255 0.04198,0.022239 -0.06783,-0.066543 -0.105032,-0.095996 -0.0979,-0.077501 -0.201596,-0.1475654 -0.299897,-0.2245686 -0.137045,-0.107355 -0.270679,-0.2189423 -0.406019,-0.3284126 -0.08594,-0.09383 -0.171872,-0.1876594 -0.257808,-0.2814896 0,0 -0.03324,-0.016212 -0.03324,-0.016212 v 0 c -0.06817,0.021411 -0.13632,0.042822 -0.204481,0.064233 -0.101167,0.00608 -0.204086,-0.00138 -0.303487,0.018255 -0.05599,0.011069 -0.137178,0.018466 -0.154997,0.072366 -0.01605,0.048517 0.04652,0.0971 0.08993,0.1244091 0.613011,0.385626 1.183705,1.029932 1.932894,0.9923087 0.292341,-0.054461 0.530238,-0.1705003 0.721576,-0.4029296 0.174483,-0.2296975 0.307227,-0.486046 0.398527,-0.7597855 0.08687,-0.2807176 0.161852,-0.563685 0.178533,-0.8589054 0.0089,-0.3472646 -0.01776,-0.6713196 -0.162273,-0.993707 C 13.532238,4.074999 13.483168,3.9689827 13.406177,3.8792967 13.391398,3.8620774 13.182905,3.6763332 13.165852,3.666046 11.719395,2.7934013 12.056677,2.959952 11.361914,2.6259931 11.088176,2.5240909 10.844243,2.4839325 10.56955,2.6135819 c -0.03994,0.022346 -0.08198,0.041332 -0.119818,0.067037 -0.220443,0.1497604 -0.352384,0.4025586 -0.4692633,0.6323974 -0.142226,0.333218 -0.2274697,0.682793 -0.256614,1.0444012 -0.032771,0.3054824 -0.042353,0.6194556 0.00898,0.9231117 0.053184,0.2906392 0.1200591,0.5922644 0.2834683,0.8433167 z" />
    <path
       style="fill:#000000;stroke-width:0.24419"
       id="path5"
       d="M 14.650346,7.4316379 C 14.426227,7.2507653 14.292234,6.9996604 14.181723,6.7404909 14.074524,6.4079241 14.080914,6.0592222 14.151848,5.7208844 14.259662,5.3635528 14.50262,5.0924153 14.777503,4.8504519 c 0.271725,-0.2306847 0.583081,-0.3798697 0.928329,-0.4618268 0.310456,-0.051232 0.594558,0.022257 0.865035,0.1717682 -0.474886,-0.2693322 -0.949022,-0.5399748 -1.424659,-0.8079968 -0.03772,-0.021253 0.07506,0.043309 0.110832,0.067653 0.15429,0.1049886 0.252237,0.2364855 0.34443,0.3953187 0.143901,0.2702246 0.153025,0.5617849 0.123995,0.8585907 -0.03564,0.2929413 -0.09825,0.5797049 -0.20563,0.8547667 -0.104257,0.2746412 -0.281145,0.4940565 -0.504813,0.6806154 -0.256157,0.2027925 -0.564689,0.3087388 -0.886706,0.3471884 -0.06848,-8.282e-4 -0.245849,0.00405 -0.314251,-0.023656 -0.0486,-0.019663 -0.173919,-0.1161714 -0.127718,-0.09145 0.472331,0.2527187 0.928086,0.5361874 1.407171,0.7760191 0.05849,0.029288 -0.09777,-0.087898 -0.136891,-0.1401128 -0.04327,-0.057765 -0.07228,-0.1248545 -0.108418,-0.1872821 0,0 -1.446724,-0.6883178 -1.446724,-0.6883178 v 0 c -0.0043,0.062917 -0.0189,0.1259983 -0.01268,0.1887517 0.0052,0.051922 0.003,0.120126 0.04623,0.1496285 0.534936,0.364513 1.097414,0.6879293 1.658204,1.01179 0.04986,0.02879 0.110461,0.034835 0.167589,0.042619 0.102181,0.013921 0.235747,-0.0047 0.336067,-0.014051 0.344757,-0.072191 0.669441,-0.1965357 0.941553,-0.425649 0.250446,-0.2113495 0.430186,-0.4475696 0.552675,-0.7530438 0.121782,-0.2872504 0.18662,-0.5883843 0.224614,-0.8974856 0.04874,-0.3199962 0.05251,-0.6454322 -0.0719,-0.9504205 C 17.152224,4.7433693 17.03827,4.5156298 16.829979,4.3950199 16.276097,4.0742977 15.717046,3.7624805 15.160579,3.446211 14.85483,3.3315666 14.545484,3.2929627 14.224885,3.3791873 c -0.35727,0.1125067 -0.68322,0.2873385 -0.964779,0.5360984 -0.297017,0.269538 -0.553936,0.5778723 -0.688877,0.9602456 -0.09248,0.3742608 -0.08652,0.7356087 -0.01312,1.1137597 0.09833,0.301525 0.233843,0.605262 0.480597,0.8155957 z" />
    <path
       style="fill:#000000;stroke-width:0.24419"
       id="path6"
       d="M 17.623901,9.0185426 C 17.424522,8.8089984 17.266459,8.5713079 17.154196,8.3051997 17.03314,7.9433595 17.136848,7.5805046 17.274144,7.2397174 17.431346,6.8983976 17.69767,6.6452686 18.01868,6.4571224 18.320268,6.3045993 18.505702,6.24439 18.833596,6.3406447 c 0.03564,0.016102 0.07275,0.029305 0.106906,0.048315 0.0311,0.017307 0.119142,0.077611 0.08809,0.060221 -0.468353,-0.2622822 -0.929384,-0.5374773 -1.400348,-0.7951011 -0.03615,-0.019773 0.06454,0.051379 0.09373,0.080363 0.06256,0.062126 0.09744,0.1192988 0.148021,0.1915505 0.135847,0.2297545 0.172577,0.4851867 0.170115,0.746949 -0.03326,0.3011515 -0.119502,0.5896726 -0.247867,0.8634637 -0.09551,0.245757 -0.233924,0.4699283 -0.373563,0.6925309 -0.13274,0.2097614 -0.244183,0.4360158 -0.415096,0.6183036 -0.111556,0.1046507 -0.26832,0.2509585 -0.440217,0.198054 -0.02377,-0.00727 -0.0415,-0.027263 -0.06225,-0.040899 1.269774,0.7522837 1.530306,0.8755989 0.728906,0.4642052 0,0 -0.549647,-0.2221517 -0.549647,-0.2221517 v 0 c -0.710064,-0.020896 -0.224172,-0.034936 1.203159,0.8190122 0.05374,0.0087 0.106795,0.02626 0.161249,0.02604 0.186543,-7.55e-4 0.384542,-0.1918399 0.506533,-0.3126321 0.173787,-0.1973454 0.298315,-0.4298529 0.422237,-0.6604116 0.122238,-0.2425155 0.246263,-0.4853825 0.342129,-0.7396184 0.09377,-0.3046691 0.203613,-0.6063238 0.24117,-0.9247945 0.03512,-0.2859973 0.0025,-0.5665143 -0.115102,-0.8322654 -0.351603,-0.7446985 -1.216946,-1.1188175 -1.997985,-1.3275107 -0.339218,-0.041506 -0.616311,0.036897 -0.90742,0.2150392 -0.335631,0.2267568 -0.621669,0.506615 -0.792446,0.8789223 -0.166206,0.3898843 -0.253042,0.771666 -0.159947,1.1933043 0.02267,0.062098 0.04023,0.1262805 0.06801,0.1862967 0.127079,0.2745869 0.340517,0.5348735 0.58864,0.707639 z" />
    <path
       style="fill:#4ca3dd;fill-opacity:1;stroke-width:0.24419"
       id="path7"
       d="M 3.7996889,8.6192208 C 3.844424,8.4459326 3.9377447,8.2861819 4.092762,8.1922423 c 0.04892,-0.012485 0.1023127,-0.030106 0.1539816,-0.027658 0.075677,0.00358 0.1496213,0.047873 0.2191589,0.073609 C 3.9866451,7.9719189 3.5073878,7.7056443 3.0281303,7.4393696 3.2153303,7.5464853 3.3504817,7.7146816 3.4820009,7.8805547 3.6122296,8.0780648 3.762191,8.2559306 3.9474886,8.4036176 4.6639344,8.8010706 5.3004894,9.5867774 6.0949853,9.217454 6.301895,9.13424 6.5023848,9.0354847 6.7122378,8.9594264 c 0.077211,-0.00671 0.1487585,-0.044506 0.222349,-0.061307 0.042178,-0.00963 0.097347,5.843e-4 0.1401443,0.00451 C 7.5096713,9.2866802 8.4819938,9.7165 5.6391583,8.1107607 c -0.017606,-0.00995 0.038471,0.014428 0.054422,0.026831 0.014118,0.010977 0.091684,0.1056932 0.099265,0.1147866 0.1095735,0.1611841 0.1891085,0.3398477 0.2777625,0.5126529 0.3527271,0.6416467 1.0673172,1.0996854 1.8125485,1.1961397 0.047379,-0.02039 0.1054203,-0.0046 0.1531527,-0.0243 C 8.071432,9.9223519 8.1868631,9.8412159 8.218059,9.8210805 8.4387187,9.6786567 8.168698,9.8591815 8.3888405,9.7106784 8.5130052,9.629847 8.6423459,9.501124 8.7953616,9.4825837 c 0.017895,0.0011 0.036428,-0.00166 0.053684,0.00322 0.03017,0.00837 0.098849,0.075826 0.071458,0.0607 C 8.4171713,9.2684824 7.9190447,8.9812478 7.4191254,8.6972085 c -0.01364,-0.00773 0.030274,0.010499 0.042445,0.020371 0.017143,0.013912 0.02919,0.033069 0.043785,0.049604 0.10834,0.2079838 0.1438563,0.4425615 0.2096927,0.6653286 0.07978,0.2581869 0.1653947,0.5157858 0.3502728,0.7186109 -0.016053,-0.6785447 1.1098199,1.060576 1.7359395,0.885551 0.047657,-0.01333 0.091362,-0.03797 0.1365004,-0.05817 0.1440222,-0.06448 0.2820112,-0.139227 0.4205552,-0.214376 0.196478,-0.09592 0.383486,-0.24206 0.609907,-0.241475 0.02063,0.0076 0.04271,0.01209 0.06193,0.02277 0.01925,0.01071 0.07134,0.05126 0.05206,0.04063 -0.50625,-0.279229 -1.00861,-0.565375 -1.5136388,-0.8467821 -0.020329,-0.011327 0.041556,0.021714 0.059489,0.036519 0.05075,0.041902 0.073847,0.084871 0.1108822,0.1390233 0.123539,0.2031568 0.2288372,0.4162838 0.3267576,0.6325558 0.324721,0.753059 0.907883,0.778402 1.846005,1.22808 0.03642,0.01746 0.07362,-0.03323 0.110439,-0.04986 0.251975,-0.15746 0.483653,-0.344161 0.718658,-0.525023 0.189771,-0.153693 0.393517,-0.289561 0.613319,-0.396755 0.02056,-0.0091 0.03972,-0.02236 0.06167,-0.02726 0.0183,-0.004 0.06026,0.0073 0.07789,0.01433 0.009,0.0036 0.03416,0.01841 0.02566,0.01373 -1.578208,-0.8706034 -2.169792,-0.8660764 -1.543375,-0.8661758 0.06079,0.090383 0.100166,0.1930958 0.150208,0.2900058 0.06973,0.117859 0.138441,0.23853 0.224274,0.345643 0.508948,0.5171 1.181185,1.010388 1.915709,1.03503 0.08813,-0.0044 0.194472,-0.0083 0.278394,-0.04145 0.03897,-0.01536 0.112693,-0.06752 0.146452,-0.09015 0.111232,-0.07594 0.212787,-0.164229 0.324666,-0.238874 0.01143,-0.0072 0.02935,-0.009 0.03428,-0.02143 0.02426,-0.06143 -0.434675,-0.364729 -0.441609,-0.36965 0,0 -0.580121,-0.308464 -0.580121,-0.308464 v 0 c -0.08559,-0.05457 -0.171188,-0.109094 -0.256744,-0.163702 -0.07599,-0.0485 -0.195247,-0.188205 -0.2926,-0.104666 -0.09879,0.07884 -0.195155,0.163669 -0.305856,0.225263 -0.114603,0.04996 -0.238225,0.05837 -0.36101,0.03356 -0.06645,-0.01623 -0.05318,-0.0097 -0.114114,-0.03736 -0.01632,-0.0074 -0.06373,-0.03276 -0.04821,-0.0238 2.468798,1.424424 1.940432,1.083629 1.387523,0.806546 -0.0055,-0.0049 -0.08933,-0.07912 -0.0953,-0.08614 -0.05692,-0.06676 -0.0879,-0.154424 -0.146573,-0.220458 -0.05769,-0.09033 -0.106814,-0.18511 -0.136731,-0.287739 -0.05978,-0.7204455 -1.238564,-1.2558398 -1.83053,-0.8656814 -0.212467,0.1305325 -0.416581,0.2737684 -0.608963,0.4323564 -0.21513,0.165705 -0.430398,0.356829 -0.690702,0.445613 -0.6486282,-0.101137 -0.06237,-0.01884 1.431101,0.855205 0.02194,0.01283 -0.04887,-0.0153 -0.0712,-0.02745 -0.09102,-0.04956 -0.136856,-0.135163 -0.176712,-0.22665 -0.101871,-0.21575 -0.192813,-0.436819 -0.312192,-0.644081 -0.01754,-0.03601 -0.0991,-0.228448 -0.130382,-0.247118 C 10.780838,10.111405 10.155426,9.3335251 9.4842742,9.4943164 9.2751639,9.5720842 9.093534,9.7106207 8.8961834,9.8129086 8.7703096,9.8772427 8.6340518,9.9603711 8.4927301,9.9869789 7.9736539,10.084709 6.3002881,8.6998658 9.7127707,10.799392 9.6805084,10.785572 9.6450894,10.777484 9.6159793,10.757923 9.436988,10.637672 9.3837669,10.370026 9.3100978,10.184842 9.2452305,9.9581352 9.2070194,9.725233 9.1367311,9.5000864 8.9450897,8.8101596 7.9936575,8.2428603 7.3154477,8.4875722 7.1667185,8.5650455 7.0283262,8.6576088 6.8951364,8.7590262 6.7699278,8.8384594 6.6311757,8.9517803 6.4793861,8.8722412 5.9662978,8.5261939 6.3519363,8.7877107 7.8983824,9.6988534 7.9162771,9.7093979 7.8596306,9.6830183 7.8424303,9.6713881 7.7738233,9.6250237 7.7403353,9.5488265 7.6910643,9.4854464 7.5888129,9.3170993 7.5123536,9.1349376 7.4223012,8.9600566 c -0.015217,-0.027254 -0.030438,-0.054517 -0.045657,-0.08177 -0.014707,-0.018034 -0.03199,-0.034255 -0.044118,-0.054094 -0.01345,-0.022 -0.00981,-0.057084 -0.031983,-0.07037 C 7.2962323,8.7512484 6.2380039,7.7568391 5.624619,7.8656782 5.4945821,7.8877428 5.3709548,7.9391033 5.2452353,7.978102 5.0356832,8.0582156 4.833752,8.1581971 4.6204201,8.2292049 4.4968972,8.2599178 4.3829066,8.2740323 4.2573315,8.2413782 4.2286913,8.2339224 4.1477054,8.1982346 4.1731287,8.213315 4.6474554,8.494605 5.1281743,8.7651084 5.605697,9.0410055 5.5727067,9.0266151 5.5375869,9.0163191 5.5067261,8.9978434 5.3376297,8.8965625 5.218881,8.7299093 5.103386,8.5763519 4.9748842,8.3919313 4.8355903,8.2171414 4.6663916,8.0680522 4.1365134,7.7714092 3.6109169,7.4670806 3.0767567,7.1781234 2.954583,7.1120336 2.7419517,7.2119117 2.6383933,7.2739474 2.4660675,7.4121702 2.3558924,7.5894857 2.2803208,7.7960663 Z" />
    <path
       style="fill:#4ba2de;fill-opacity:1;stroke-width:0.24419"
       id="path8"
       d="m 4.0060239,12.008848 c -0.0017,-0.150545 -0.00205,-0.292732 0.066613,-0.429902 0.026879,1.22e-4 0.025607,-0.05598 0.05171,-0.05929 0.019441,-0.0025 0.00698,0.03176 0.018628,0.06996 0.00507,0.01661 0.038203,0.05524 0.022957,0.04677 -0.5061906,-0.280667 -1.0025145,-0.578564 -1.5037716,-0.867847 0.1239535,0.121053 0.1792345,0.287079 0.2446378,0.442735 0.07311,0.158834 0.1125437,0.329337 0.1696564,0.493796 0.2389378,0.642607 1.1634577,1.50202 1.784006,1.065523 0.1545981,-0.09925 0.2750413,-0.238638 0.4021311,-0.368912 0.00389,-0.0029 0.060792,-0.05302 0.082366,-0.04556 0.00965,0.0033 0.00951,0.018 0.01487,0.02664 0.0059,0.0095 0.028783,0.03316 0.018902,0.02781 -1.6262285,-0.880639 -2.1179982,-1.005994 -1.5025752,-0.844083 0.1038773,0.123313 0.1801892,0.263747 0.2866157,0.38538 0.5069093,0.457636 0.1664098,0.159394 1.6205184,0.956923 0.027273,0.01496 0.061934,0.0095 0.093063,0.0083 0.097893,-0.0034 0.2010779,-0.03249 0.2944905,-0.05879 0.075701,-0.01981 0.2698396,-0.09634 0.3381451,-0.02168 0.011071,0.0121 0.014541,0.02934 0.021815,0.04401 -3.4567703,-1.865819 -1.6453531,-1.2014 -1.3664361,-0.739104 0.048446,0.08029 0.09037,0.147725 0.1536545,0.21786 0.8623736,0.516255 1.0829988,1.021257 1.760393,0.780474 0.1143317,-0.04064 0.2218121,-0.08349 0.3395658,-0.114553 0.1058183,-0.02454 0.2001732,-0.008 0.2938735,0.0462 0.025736,0.01488 0.097419,0.06773 0.071458,0.05325 -1.3986133,-0.779937 -1.7615997,-1.185212 -1.3294656,-0.720051 0.4390549,0.774112 0.2168375,0.478546 1.7219784,1.236418 0.039298,0.01978 0.078207,-0.04032 0.1173041,-0.06048 0.1165662,-0.04746 0.3475391,-0.276587 0.4709651,-0.243451 0.015858,0.0042 0.026578,0.0192 0.039872,0.02878 -0.4836821,-0.264599 -0.9673633,-0.529198 -1.4510454,-0.793797 0.019411,0.01236 0.042968,0.01991 0.058237,0.03706 0.01993,0.02241 0.03168,0.05103 0.044283,0.07819 0.042089,0.0907 0.071797,0.180241 0.1222225,0.267572 0.4001039,0.520683 0.08478,0.127619 1.576785,0.91354 0.00389,0.0021 0.170388,0.006 0.1794047,0.0068 0.055008,0.005 0.1092557,0.01632 0.1639867,0.02376 0.025467,0.0078 0.053647,0.0096 0.076393,0.02335 0.024726,0.01498 0.087288,0.07448 0.061979,0.06049 -0.4599707,-0.25408 -0.9096437,-0.526239 -1.3685501,-0.782213 -0.025069,-0.01398 0.044288,0.03648 0.065719,0.05551 0.021746,0.01931 0.03865,0.04483 0.063793,0.05949 0.5004825,0.291864 1.0074284,0.572638 1.5111428,0.858957 0.140677,0.0088 0.271761,-0.04745 0.404713,-0.08084 0.0235,-0.0059 0.1518,-0.02182 0.177923,-0.02521 0.07672,-0.01156 0.153831,-0.0091 0.223396,0.02942 0.0344,0.01906 0.0722,0.06381 0.110955,0.07707 0.0235,0.008 0.04934,0.006 0.07402,0.0091 0.190521,5.4e-5 0.340683,-0.127869 0.515314,-0.176881 0.01699,-0.0042 0.03482,-0.01946 0.05097,-0.01271 0.01108,0.0046 0.01442,0.04141 0.0039,0.03564 -0.484289,-0.265453 -0.959002,-0.547811 -1.438386,-0.821918 -0.0086,-0.0049 0.02084,0.006 0.0261,0.01439 0.03607,0.05748 0.03565,0.111018 0.04511,0.176609 0.01988,0.233239 0.106472,0.45028 0.202552,0.661148 0.287611,0.456566 0.945541,0.635443 1.360242,0.859117 0.02654,0.01431 0.06027,0.0099 0.09033,0.0069 0.0607,-0.006 0.150564,-0.0433 0.206334,-0.06388 0.147904,-0.05533 0.252883,-0.173825 0.371663,-0.271142 0.07493,-0.06139 0.107002,-0.07938 0.186664,-0.131351 0.06871,-0.04453 0.271025,-0.13532 0.351736,-0.08183 0.01285,0.0085 0.01957,0.02375 0.02936,0.03562 0.376551,0.422 0.02612,0.02232 -1.328723,-0.746799 -0.0169,-0.0096 0.03366,0.02058 0.04652,0.03511 0.05502,0.06214 0.09059,0.152957 0.127571,0.225949 0.05913,0.147317 0.116776,0.295779 0.215282,0.421725 0.437616,0.434335 0.993746,0.883872 1.621145,0.905113 0.139901,0.01963 0.260092,-0.07482 0.34984,-0.170976 0.112149,-0.08386 0.216275,-0.174476 0.308247,-0.279693 0.01043,-0.0089 0.02709,-0.0135 0.03126,-0.02646 0.01668,-0.0517 -0.177509,-0.0981 -0.203442,-0.108717 0,0 -0.909401,-0.655737 -0.909401,-0.655737 v 0 c -0.126368,-0.04882 -0.20775,-0.135615 -0.296941,-0.03186 -0.08118,0.101199 -0.169891,0.196967 -0.259007,0.291192 -0.08828,0.07649 -0.128655,0.09244 -0.245488,0.06425 -0.03543,-0.01166 -0.136267,-0.0599 -0.103988,-0.04127 0.424416,0.244905 0.850236,0.487395 1.275354,0.731092 -0.05191,-0.01773 -0.09021,-0.03667 -0.124098,-0.08237 -0.12161,-0.08481 -0.177578,-0.219009 -0.215787,-0.35745 -0.238101,-0.658575 -0.395416,-1.141353 -1.581833,-1.15222 -0.140586,0.03905 -0.238515,0.150629 -0.343975,0.244606 -0.142344,0.150886 -0.296833,0.291833 -0.479938,0.392864 -0.06045,0.02058 -0.07078,0.03424 -0.134055,0.0183 -0.02226,-0.0056 -0.08291,-0.03889 -0.06321,-0.02718 0.364715,0.216593 0.733755,0.425936 1.09871,0.642131 0.02397,0.01421 -0.05247,-0.02031 -0.07549,-0.03599 -0.02346,-0.01599 -0.04156,-0.03863 -0.06233,-0.05794 -0.01811,-0.02551 -0.04066,-0.04842 -0.05434,-0.07652 -0.06328,-0.130112 -0.03979,-0.295481 -0.01586,-0.4307 0.0077,-0.02215 0.01126,-0.04616 0.02303,-0.06644 0.0049,-0.0084 0.112389,-0.11434 0.07617,-0.138548 C 10.143259,12.941626 10.612385,12.783448 9.9972236,13.06719 9.866773,13.14087 9.7196682,13.223926 9.5682726,13.16048 9.4250568,13.08094 9.2780881,13.07513 9.1185471,13.11251 c -0.171153,0.03571 -0.3504589,0.118359 -0.5193216,0.03123 0.4519679,0.263498 0.9039366,0.526995 1.3559054,0.790492 -0.02343,-0.01452 -0.04899,-0.02611 -0.070301,-0.04357 -0.021505,-0.01762 -0.033326,-0.0462 -0.057035,-0.06076 -0.5214636,-0.320322 -1.037778,-0.846896 -1.680222,-0.932956 -0.080262,-0.01019 -0.1653854,-0.01182 -0.2441155,-0.0311 -0.027032,-0.0066 -0.1032236,-0.04012 -0.079355,-0.02587 1.3073493,0.780609 1.8765284,0.969683 1.3023892,0.773858 -0.072875,-0.06525 -0.1120098,-0.113969 -0.1355719,-0.211345 -0.00952,-0.03932 -0.030781,-0.192975 -0.035918,-0.196127 -0.5001503,-0.306405 -1.0243968,-0.572136 -1.536595,-0.858204 -0.1961409,0.05027 -0.3312664,0.205609 -0.5239875,0.264251 -0.5539787,-0.225363 -0.2063211,-0.08751 1.3235457,0.803024 0.024949,0.01452 -0.044204,-0.03734 -0.063396,-0.05883 -0.069709,-0.07808 -0.1115903,-0.172798 -0.144135,-0.270883 -0.2755363,-0.640537 -0.029134,-0.121159 -1.566154,-1.021441 -0.1147079,-0.06719 -0.3088351,-0.01732 -0.425709,0.01196 -0.106829,0.03641 -0.2170047,0.08351 -0.3289515,0.102393 -0.5324537,0.08981 -1.8525192,-1.048868 1.215366,0.790477 -0.07677,-0.01755 -0.1392854,-0.04486 -0.1782715,-0.120087 -0.011415,-0.02203 -0.013474,-0.04771 -0.020222,-0.07156 -0.1802682,-0.637055 -0.00677,-0.06011 -1.5454412,-0.990021 -0.1420968,0.009 -0.2736103,0.05302 -0.4109182,0.08752 -0.085882,0.0097 -0.167554,0.02271 -0.2505828,-0.01044 -0.022152,-0.0089 -0.083005,-0.04692 -0.062383,-0.03496 1.420076,0.823141 1.90056,1.034886 1.3307845,0.7801 C 5.6324962,12.503952 5.5967821,12.4323 5.5351474,12.276548 5.4103625,11.584639 4.1990639,10.902305 3.7143401,11.467659 c -0.097209,0.111417 -0.2032465,0.242877 -0.3542976,0.276953 -0.3263318,-0.523831 -0.056366,-0.08065 1.5146482,0.842797 0.01363,0.008 -0.031842,0.0047 -0.04746,0.0022 -0.050422,-0.0083 -0.045692,-0.0238 -0.065114,-0.06881 -0.00839,-0.01944 -0.015847,-0.03927 -0.023768,-0.05889 C 4.6505374,12.306501 4.6250632,12.12918 4.5555294,11.966052 4.4840874,11.796613 4.4354434,11.616322 4.3322925,11.462221 3.8045629,11.144932 3.2827813,10.817658 2.7491036,10.510354 2.6701996,10.464919 2.5485465,10.650399 2.5258016,10.707722 2.4527,10.865628 2.4238085,11.041117 2.4376573,11.214598 Z" />
    <path
       style="fill:#000000;fill-opacity:1;stroke-width:0.24419"
       id="path12"
       d="m 19.209739,8.7740765 c -0.02923,0.1952623 -0.09493,0.3821065 -0.13235,0.5755773 -0.113768,0.5882197 0.06524,-0.2449594 -0.06644,0.3547681 -0.05896,0.2438589 -0.0816,0.4941581 -0.11529,0.7420071 -0.008,0.05835 -0.02064,0.115948 -0.03097,0.173923 -0.0083,0.06189 -0.01644,0.12379 -0.02467,0.185686 -0.04193,0.323088 -0.12508,0.638553 -0.176288,0.960328 -0.03613,0.309697 -0.07233,0.619631 -0.09581,0.930532 -0.03193,0.327998 -0.06921,0.655182 -0.08693,0.984351 -0.0027,0.283087 -0.02356,0.56483 -0.05901,0.845562 -0.0042,0.223383 -0.03805,0.444156 -0.06272,0.665717 -0.0127,0.204812 -0.04179,0.409754 -0.08118,0.611247 -0.04464,0.198514 -0.116208,0.389793 -0.185655,0.580739 -0.05723,0.163126 -0.136827,0.316099 -0.185583,0.482197 -0.04497,0.140818 -0.0612,0.286168 -0.06602,0.432951 -0.0065,0.123403 0.0032,0.247197 -0.01537,0.369673 -0.01665,0.07303 -0.03317,0.146082 -0.04925,0.219261 0.01468,-0.01255 -0.02215,0.07294 -0.01223,0.05643 0.0075,-0.01233 0.029,-0.06397 -0.0098,-8e-6 -0.02379,0.03832 -0.04367,0.07731 -0.05402,0.121329 -0.0076,0.04059 -0.0035,0.07986 -0.0035,0.120814 2.4e-4,0.07476 0.0028,0.149622 0.0077,0.224233 0.0062,0.07039 0.03424,0.136033 0.05464,0.203084 0.001,0.0062 0.0019,0.01231 0.0029,0.01847 0.0037,-0.0029 0.0095,-0.01302 0.01105,-0.0086 0.0042,0.01215 -0.02952,0.139671 -0.03382,0.160009 -0.01636,0.08512 -0.02048,0.169916 0.008,0.252642 0.180976,0.21882 0.525883,0.173959 0.725073,0.362985 0,0 0.08555,0.06468 0.08555,0.06468 v 0 c 0.228075,0.132133 0.489929,0.205973 0.737659,0.281302 -0.0034,-0.004 -0.01552,0.001 -0.01516,-0.0041 5.15e-4,-0.0074 0.0085,-0.01278 0.01021,-0.02013 0.0078,-0.03489 0.0032,-0.07426 0.0121,-0.109293 0.01143,-0.07109 0.04608,-0.129394 0.0633,-0.197681 0.0018,-0.0073 -0.0022,-0.01475 -0.0035,-0.02213 -0.0034,-0.06933 -0.01084,-0.13925 -0.04662,-0.200502 -0.02502,-0.05968 -0.0032,-0.126423 -0.0088,-0.189828 -1.84e-4,-0.03218 0.0032,-0.06422 0.0014,-0.09559 -0.0014,-0.013 -0.0053,-0.02737 0.01298,-0.05078 0.03129,-0.04147 0.05594,-0.07905 0.04698,-0.131308 0.0057,-0.07469 0.01924,-0.148246 0.03496,-0.221469 0.02617,-0.131411 0.03001,-0.260629 0.02368,-0.394749 0.0029,-0.134364 0.0022,-0.26959 0.03536,-0.40092 0.04305,-0.167505 0.117859,-0.322362 0.157876,-0.490669 0.07823,-0.292561 -0.02852,0.118816 0.03771,-0.177716 0.03239,-0.145029 0.09711,-0.281294 0.127993,-0.426777 0.05697,-0.203823 0.06603,-0.418548 0.09843,-0.627415 0.02188,-0.222825 0.05527,-0.444147 0.06631,-0.667823 0.01232,-0.286735 0.04773,-0.571915 0.0457,-0.859273 0.01374,-0.328768 0.03173,-0.657637 0.07609,-0.98399 0.02552,-0.305957 0.06847,-0.609597 0.09829,-0.915107 0.05003,-0.331901 0.101106,-0.662046 0.117025,-0.998009 0.04146,-0.396255 0.05763,-0.794213 0.01227,-1.191218 -0.01808,-0.345241 0.0036,-0.6918449 -0.01829,-1.0374866 z" />
    <path
       style="fill:#000000;fill-opacity:1;stroke-width:0.24419"
       id="path13"
       d="m 16.874161,18.625875 c -2.587113,-1.500163 -0.204673,-0.07872 0.630989,0.343824 0.147525,0.08449 0.310011,0.135588 0.464346,0.203747 0.02217,0.0076 0.04541,0.01272 0.06652,0.02288 0.01903,0.0092 0.03532,0.02311 0.05298,0.03467 0.01906,0.0098 0.03767,0.02044 0.0572,0.02924 0.05887,0.02656 0.120459,0.04687 0.179608,0.07297 0.126609,0.08847 0.271773,0.139058 0.409335,0.205353 0.836061,0.45379 -1.784137,-1.059328 -1.203206,-0.6906 0.498063,0.28648 0.996127,0.572959 1.49419,0.859442 0.05489,0.01041 0.101565,-0.03001 0.130632,0.02594 0.04416,0.04331 -0.01235,-0.0055 0.04989,0.0242 0.103819,0.04943 -0.04365,-0.0025 0.05842,0.04142 0.02511,0.01081 0.05253,0.01526 0.07859,0.02354 0.02005,-0.0096 0.03951,0.02633 0.05914,0.01957 0.06809,-0.02345 0.109591,-0.128608 0.134264,-0.183223 -0.0025,-0.04544 0.001,-0.09628 -0.02886,-0.135144 -0.0091,-0.01183 -0.122994,-0.10781 -0.12969,-0.111725 -0.532281,-0.311289 -1.069624,-0.613949 -1.604437,-0.920923 -0.292209,-0.144556 -0.613017,-0.21582 -0.931556,-0.277561 -0.220357,-0.02106 -0.434333,-0.07667 -0.651897,-0.113783 -0.05026,-0.02211 -0.108883,-0.0024 -0.160109,-0.01423 -0.01672,-0.0039 -0.0308,-0.01527 -0.04695,-0.021 -0.0406,-0.01438 -0.06308,-0.0156 -0.105517,-0.02192 -0.121292,-0.01593 -0.243979,-0.01964 -0.3662,-0.02175 -0.04481,0.01517 -0.111017,-0.01931 -0.153242,0.0039 -0.330667,0.744734 -0.159437,0.174277 1.457739,1.07778 0.0502,0.02804 0.0479,0.01361 0.105093,0.0353 0.02115,0.008 0.04073,0.01965 0.0611,0.02948 0.02308,0.0083 0.04616,0.01671 0.06924,0.02509 0.14164,0.03593 0.258942,0.12428 0.39813,0.168521 0.101811,0.05146 0.202177,0.105034 0.3136,0.131756 0.1132,0.05809 0.241136,0.07855 0.366777,0.08979 0.05211,0.01439 0.113324,-0.0051 0.164874,0.01144 0.03587,0.01152 0.06725,0.04763 0.104222,0.06218 0.115235,0.05305 0.235292,0.09151 0.360252,0.117739 0.03708,0.01865 0.07983,0.0081 0.118154,0.01911 0.0045,0.0012 0.01068,0.01424 0.0067,0.01196 -0.452434,-0.261785 -0.916757,-0.504861 -1.353765,-0.791367 -0.093,-0.06096 0.212798,0.06686 0.315199,0.110477 0.12135,0.05169 0.236548,0.116606 0.354823,0.174908 0,0 0.03288,0.01692 0.03288,0.01692 v 0 c 0.119118,0.04548 0.236409,0.09599 0.357354,0.136409 0.09792,0.03273 0.384236,0.140085 0.298504,0.0828 -0.792742,-0.529704 -0.962805,-0.71144 -1.579914,-0.867916 -0.122245,-0.04113 -0.239936,-0.09284 -0.36191,-0.13427 -0.07861,-0.02106 -0.163317,0.01551 -0.242786,-0.01352 -0.11719,-0.02673 -0.228533,-0.06707 -0.340387,-0.110452 -0.09953,-0.04713 -0.199036,-0.09394 -0.302343,-0.132563 -0.128853,-0.06296 -0.259184,-0.119851 -0.395474,-0.165115 -0.06443,-0.02702 -0.129645,-0.05071 -0.193922,-0.078 -0.01528,-0.0065 -0.06057,-0.02689 -0.04619,-0.01862 1.556775,0.893186 1.797793,0.363746 1.377483,1.040158 0.02457,0.0085 0.100779,0.0021 0.140054,0.0082 0.116654,0.0065 0.233516,0.01526 0.346776,0.04597 0.105224,0.02874 0.211893,0.03068 0.318618,0.05348 0.207642,0.03734 0.417077,0.06196 0.624669,0.09938 0.312129,0.06671 0.620096,0.156397 0.897389,0.318157 -0.462879,-0.267278 -0.926912,-0.532592 -1.388636,-0.801837 -0.02579,-0.01505 0.05505,0.0237 0.08063,0.03909 0.01956,0.01179 0.03393,0.03119 0.05404,0.04203 0.03172,0.01707 0.07164,0.0051 0.09261,0.03797 0.01304,-0.0156 0.07476,-0.08065 0.06519,-0.115413 -0.0043,-0.01558 -0.04764,0.0048 -0.045,-0.01861 -0.06515,-0.03321 -0.127861,-0.0764 -0.199585,-0.09075 -0.0487,0.01283 -0.07188,0.0032 -0.106746,-0.03261 0.482159,0.278518 0.964317,0.557037 1.446476,0.835555 -0.517544,-0.393202 -1.090923,-0.723355 -1.697407,-0.959218 -0.117283,-0.04216 -0.226055,-0.102095 -0.342021,-0.147306 -0.10454,-0.03545 -0.202404,-0.08569 -0.306546,-0.122349 -0.148826,-0.05439 -0.291533,-0.124145 -0.432712,-0.19562 -0.106636,-0.05481 -0.213145,-0.109736 -0.318792,-0.166412 -0.03296,-0.01767 -0.130994,-0.07217 -0.09865,-0.05343 0.05741,0.03329 3.268654,1.884468 -0.172453,-0.0995 z" />
    <path
       style="fill:#000000;fill-opacity:1;stroke-width:0.24419"
       id="path14"
       d="m 17.296529,18.653918 c -0.133943,-0.0049 -0.26765,-0.0057 -0.401221,-0.01775 -0.645975,-0.147742 0.899118,1.01522 1.471899,1.047731 0.04328,0.02966 0.09715,0.0275 0.145031,0.04242 0.07892,0.02458 0.09808,0.04321 0.186376,0.04253 0.138841,-0.0074 0.2778,-0.01308 0.416782,-0.01715 0.122372,0.02278 0.245407,0.04615 0.369592,0.05715 0.09564,0.0012 0.172365,0.03621 0.05988,-0.07852 0,0 -1.113087,-0.80964 -1.113087,-0.80964 v 0 c -0.09283,-0.05417 -0.174764,-0.0995 -0.284163,-0.101426 -0.128156,-0.01867 -0.257436,-0.0421 -0.387154,-0.03894 -0.132241,0.0051 -0.266744,0.01784 -0.397472,-0.0082 -0.110232,-0.04098 -0.223973,-0.07344 -0.338423,-0.09986 -0.176843,-0.06776 0.103437,0.04078 -0.07381,-0.03176 -0.01156,-0.0047 -0.04533,-0.01969 -0.03551,-0.01201 0.434064,0.339136 0.87323,0.671769 1.309845,1.007653 0.01821,-0.0077 0.0066,-0.0043 0.03583,-0.0047 0.138256,-0.001 0.277267,0.0065 0.414688,-0.0111 z" />
  </g>
</svg>
